:FULLY-SPECIFIED
:FORCE-ALL-JOINTS-BE-3DOF
:DEGREES
781
root 1.65128 16.3757 18.6226 -11.9052 74.2567 -17.5456
lfemur -34.4018 7.05609 -12.0183
ltibia 51.0373 -0 0
lfoot -24.2732 19.3062 -0.161367
ltoes 14.7093 -0 0
rfemur -15.1021 -21.5681 21.2299
rtibia 52.0735 -0 0
rfoot -15.8945 -28.2531 -0.208456
rtoes -25.5606 0 0
lowerback 0.906548 4.63839 -0.135393
upperback -0.746183 6.18403 -3.53068
thorax -0.896237 3.10184 -3.63689
lowerneck -5.5133 -6.38085 -0.385291
upperneck -0.938428 -8.4782 4.27969
head 0.839492 -4.15908 1.17713
lclavicle 5.60573e-14 -3.33958e-14 0
lhumerus -56.0248 -11.7792 95.2597
lradius 71.3085 -0 0
lwrist 15.1664 0 0
lhand -23.5855 -4.05865 -0.069978
lfingers 7.12502 -0 0
lthumb 2.87816 25.9226 -0.0644894
rclavicle 5.60573e-14 -3.33958e-14 0
rhumerus -33.1183 49.2194 -113.838
rradius 79.4566 -0 0
rwrist 5.61691 0 0
rhand -22.2837 -19.9856 0.0370888
rfingers 7.12502 -0 0
rthumb 4.13351 -49.8843 0.0410675
782
root 1.6116 16.4153 18.7088 -8.32952 71.1986 -13.916
lfemur -33.8031 5.00862 -11.1343
ltibia 50.3597 -0 0
lfoot -23.4984 18.1506 -0.115229
ltoes 13.2785 -0 0
rfemur -15.1181 -20.5182 20.9147
rtibia 51.3852 -0 0
rfoot -16.2683 -27.3287 -0.129261
rtoes -26.2562 0 0
lowerback 0.906726 4.62625 0.0422206
upperback -0.689208 6.16901 -3.43755
thorax -0.830473 3.09204 -3.63573
lowerneck -5.56144 -6.24453 -0.267285
upperneck -0.928334 -8.30769 4.17205
head 0.835322 -4.07776 1.12729
lclavicle 5.60573e-14 -3.33958e-14 0
lhumerus -56.145 -11.7263 95.236
lradius 71.1333 -0 0
lwrist 15.1924 0 0
lhand -23.7244 -3.80763 -0.0583585
lfingers 7.12502 -0 0
lthumb 2.74398 26.173 -0.0535669
rclavicle 5.60573e-14 -3.33958e-14 0
rhumerus -33.2532 48.7837 -114.165
rradius 79.4899 -0 0
rwrist 5.31333 0 0
rhand -22.9317 -20.1709 0.0312974
rfingers 7.12502 -0 0
rthumb 3.5081 -50.0922 0.0340629
783
root 1.57604 16.4512 18.797 -5.8434 68.1648 -11.3881
lfemur -33.3568 3.18354 -10.3742
ltibia 49.7694 -0 0
lfoot -22.7887 17.0081 -0.0689503
ltoes 12.029 -0 0
rfemur -15.0979 -19.5022 20.6355
rtibia 50.6804 -0 0
rfoot -16.651 -26.4551 -0.063642
rtoes -26.8353 0 0
lowerback 0.912982 4.61535 0.219312
upperback -0.636045 6.15565 -3.34574
thorax -0.77174 3.08326 -3.63638
lowerneck -5.60603 -6.10792 -0.155004
upperneck -0.92212 -8.13575 4.06688
head 0.830152 -3.99543 1.07936
lclavicle 5.60573e-14 -3.33958e-14 0
lhumerus -56.243 -11.6605 95.2018
lradius 70.9465 -0 0
lwrist 15.2808 0 0
lhand -23.7644 -3.54013 -0.0425154
lfingers 7.12502 -0 0
lthumb 2.70524 26.4368 -0.0388638
rclavicle 5.60573e-14 -3.33958e-14 0
rhumerus -33.3946 48.3794 -114.466
rradius 79.462 -0 0
rwrist 5.04284 0 0
rhand -23.4823 -20.3896 0.023089
rfingers 7.12502 -0 0
rthumb 2.97673 -50.3303 0.0246951
784
root 1.54485 16.4827 18.8878 -4.03613 65.1875 -9.55287
lfemur -33.0731 1.63891 -9.74734
ltibia 49.284 -0 0
lfoot -22.1579 15.8963 -0.0283303
ltoes 11.0051 -0 0
rfemur -15.0298 -18.5316 20.4024
rtibia 49.9475 -0 0
rfoot -17.0521 -25.6585 -0.0182764
rtoes -27.291 0 0
lowerback 0.925053 4.6056 0.395304
upperback -0.587969 6.14387 -3.25676
thorax -0.721058 3.07552 -3.64008
lowerneck -5.64602 -5.97149 -0.049888
upperneck -0.919919 -7.96263 3.96463
head 0.823892 -3.91209 1.03375
lclavicle 5.60573e-14 -3.33958e-14 0
lhumerus -56.3167 -11.5816 95.1591
lradius 70.7547 -0 0
lwrist 15.4411 0 0
lhand -23.6868 -3.25544 -0.0228373
lfingers 7.12502 -0 0
lthumb 2.78005 26.7144 -0.0207878
rclavicle 5.60573e-14 -3.33958e-14 0
rhumerus -33.5562 48.0131 -114.744
rradius 79.3587 -0 0
rwrist 4.81383 0 0
rhand -23.9164 -20.6461 0.0125299
rfingers 7.12502 -0 0
rthumb 2.55781 -50.6026 0.0131709
